{"asset":{"version":"2.0","generator":"Blockbench 5.0.7 glTF exporter"},"scenes":[{"nodes":[3],"name":"blockbench_export"}],"scene":0,"nodes":[{"translation":[-0.125,-0.25,0.0625],"name":"left_arm_lower"},{"translation":[-0.75,2.3125,0],"name":"left_arm_upper","children":[0]},{"name":"hips","children":[1]},{"translation":[0,-0.0625,0],"name":"hips","mesh":0,"children":[2],"skin":0}],"bufferViews":[{"buffer":0,"byteOffset":0,"byteLength":1152,"target":34962,"byteStride":12},{"buffer":0,"byteOffset":1152,"byteLength":1152,"target":34962,"byteStride":12},{"buffer":0,"byteOffset":2304,"byteLength":768,"target":34962,"byteStride":8},{"buffer":0,"byteOffset":3072,"byteLength":768,"target":34962,"byteStride":8},{"buffer":0,"byteOffset":3840,"byteLength":1536,"target":34962,"byteStride":16},{"buffer":0,"byteOffset":5376,"byteLength":72,"target":34963},{"buffer":0,"byteOffset":5448,"byteLength":72,"target":34963},{"buffer":0,"byteOffset":5520,"byteLength":144,"target":34963},{"buffer":0,"byteOffset":5664,"byteLength":192}],"buffers":[{"byteLength":5856,"uri":"data:application/octet-stream;base64,"}],"accessors":[{"bufferView":0,"componentType":5126,"count":96,"max":[0.5,4.0625,0.5],"min":[-0.9375,0.5625,-0.5],"type":"VEC3"},{"bufferView":1,"componentType":5126,"count":96,"max":[1,1,1],"min":[-1,-1,-1],"type":"VEC3"},{"bufferView":2,"componentType":5126,"count":96,"max":[1.00390625,0.75],"min":[0,0],"type":"VEC2"},{"bufferView":3,"componentType":5123,"count":96,"max":[0,2,0,0],"min":[0,0,0,0],"type":"VEC4"},{"bufferView":4,"componentType":5126,"count":96,"max":[0,1,0,0],"min":[0,1,0,0],"type":"VEC4"},{"bufferView":5,"componentType":5123,"count":36,"max":[23],"min":[0],"type":"SCALAR"},{"bufferView":6,"componentType":5123,"count":36,"max":[47],"min":[24],"type":"SCALAR"},{"bufferView":7,"componentType":5123,"count":72,"max":[95],"min":[48],"type":"SCALAR"},{"bufferView":8,"componentType":5126,"count":3,"max":[1,0,0,0,0,1,0,0,0,0,1,0,0.875,0,0,1],"min":[1,0,0,0,0,1,0,0,0,0,1,0,0,-2.3125,-0.0625,1],"type":"MAT4"}],"materials":[{"pbrMetallicRoughness":{"metallicFactor":0,"roughnessFactor":1,"baseColorTexture":{"index":0}},"alphaMode":"MASK","alphaCutoff":0.05,"doubleSided":true},{"pbrMetallicRoughness":{"metallicFactor":0,"roughnessFactor":1,"baseColorTexture":{"index":1}},"alphaMode":"MASK","alphaCutoff":0.05,"doubleSided":true},{"pbrMetallicRoughness":{"metallicFactor":0,"roughnessFactor":1,"baseColorTexture":{"index":2}},"alphaMode":"MASK","alphaCutoff":0.05,"doubleSided":true}],"textures":[{"sampler":0,"source":0,"name":"robot-0_head.png"},{"sampler":1,"source":1,"name":"robot-0_body.png"},{"sampler":2,"source":2,"name":"black-arms-texture.png"}],"samplers":[{"magFilter":9728,"minFilter":9728,"wrapS":33071,"wrapT":33071},{"magFilter":9728,"minFilter":9728,"wrapS":33071,"wrapT":33071},{"magFilter":9728,"minFilter":9728,"wrapS":33071,"wrapT":33071}],"images":[{"mimeType":"image/png","uri":"data:image/png;base64,"},{"mimeType":"image/png","uri":"data:image/png;base64,"},{"mimeType":"image/png","uri":"data:image/png;base64,"}],"meshes":[{"primitives":[{"mode":4,"attributes":{"POSITION":0,"NORMAL":1,"TEXCOORD_0":2,"JOINTS_0":3,"WEIGHTS_0":4},"indices":5,"material":0},{"mode":4,"attributes":{"POSITION":0,"NORMAL":1,"TEXCOORD_0":2,"JOINTS_0":3,"WEIGHTS_0":4},"indices":6,"material":1},{"mode":4,"attributes":{"POSITION":0,"NORMAL":1,"TEXCOORD_0":2,"JOINTS_0":3,"WEIGHTS_0":4},"indices":7,"material":2}]}],"skins":[{"inverseBindMatrices":8,"joints":[2,1,0],"skeleton":2}]}