{"asset":{"version":"2.0","generator":"Blockbench 5.0.7 glTF exporter"},"scenes":[{"nodes":[11],"name":"blockbench_export"}],"scene":0,"nodes":[{"translation":[0.0625,0.875,0],"name":"head"},{"translation":[-0.125,-0.3125,0.0625],"name":"left_arm_lower"},{"translation":[-0.1875,0.75,0],"name":"left_arm_upper","children":[1]},{"translation":[0.125,-0.3125,0.0625],"name":"right_arm_lower"},{"translation":[0.3125,0.75,0],"name":"right_arm_upper","children":[3]},{"translation":[-0.0625,0,0],"name":"body","children":[0,2,4]},{"translation":[0,-0.375,-0.0625],"name":"left_leg_lower"},{"translation":[-0.125,0,0],"name":"left_leg_upper","children":[6]},{"translation":[0,-0.375,-0.0625],"name":"right_leg_lower"},{"translation":[0.125,0,0],"name":"right_leg_upper","children":[8]},{"name":"hips","children":[5,7,9]},{"translation":[0,0.875,0],"name":"hips","mesh":0,"children":[10],"skin":0}],"bufferViews":[{"buffer":0,"byteOffset":0,"byteLength":2880,"target":34962,"byteStride":12},{"buffer":0,"byteOffset":2880,"byteLength":2880,"target":34962,"byteStride":12},{"buffer":0,"byteOffset":5760,"byteLength":1920,"target":34962,"byteStride":8},{"buffer":0,"byteOffset":7680,"byteLength":1920,"target":34962,"byteStride":8},{"buffer":0,"byteOffset":9600,"byteLength":3840,"target":34962,"byteStride":16},{"buffer":0,"byteOffset":13440,"byteLength":720,"target":34963},{"buffer":0,"byteOffset":14160,"byteLength":704},{"buffer":0,"byteOffset":14864,"byteLength":12},{"buffer":0,"byteOffset":14876,"byteLength":48},{"buffer":0,"byteOffset":14924,"byteLength":16},{"buffer":0,"byteOffset":14940,"byteLength":64},{"buffer":0,"byteOffset":15004,"byteLength":28},{"buffer":0,"byteOffset":15032,"byteLength":84},{"buffer":0,"byteOffset":15116,"byteLength":20},{"buffer":0,"byteOffset":15136,"byteLength":80},{"buffer":0,"byteOffset":15216,"byteLength":12},{"buffer":0,"byteOffset":15228,"byteLength":48},{"buffer":0,"byteOffset":15276,"byteLength":16},{"buffer":0,"byteOffset":15292,"byteLength":64},{"buffer":0,"byteOffset":15356,"byteLength":20},{"buffer":0,"byteOffset":15376,"byteLength":80}],"buffers":[{"byteLength":15456,"uri":"data:application/octet-stream;base64,"}],"accessors":[{"bufferView":0,"componentType":5126,"count":240,"max":[0.4375,1.3125,0.1875],"min":[-0.4375,-0.875,-0.1875],"type":"VEC3"},{"bufferView":1,"componentType":5126,"count":240,"max":[1,1,1],"min":[-1,-1,-1],"type":"VEC3"},{"bufferView":2,"componentType":5126,"count":240,"max":[0.6875,0.6875],"min":[0,0],"type":"VEC2"},{"bufferView":3,"componentType":5123,"count":240,"max":[0,10,0,0],"min":[0,1,0,0],"type":"VEC4"},{"bufferView":4,"componentType":5126,"count":240,"max":[0,1,0,0],"min":[0,1,0,0],"type":"VEC4"},{"bufferView":5,"componentType":5123,"count":360,"max":[239],"min":[0],"type":"SCALAR"},{"bufferView":6,"componentType":5126,"count":11,"max":[1,0,0,0,0,1,0,0,0,0,1,0,0.375,0.375,0.0625,1],"min":[1,0,0,0,0,1,0,0,0,0,1,0,-0.375,-0.875,-0.0625,1],"type":"MAT4"},{"bufferView":7,"componentType":5126,"count":3,"max":[1],"min":[0],"type":"SCALAR"},{"bufferView":8,"componentType":5126,"count":3,"max":[0.3826834261417389,0,0,0.9537169337272644],"min":[-0.30070579051971436,0,0,0.9238795042037964],"type":"VEC4"},{"bufferView":9,"componentType":5126,"count":4,"max":[1],"min":[0],"type":"SCALAR"},{"bufferView":10,"componentType":5126,"count":4,"max":[0.44228869676589966,0,0,0.9883615374565125],"min":[-0.15212339162826538,0,0,0.8968727588653564],"type":"VEC4"},{"bufferView":11,"componentType":5126,"count":7,"max":[1],"min":[0],"type":"SCALAR"},{"bufferView":12,"componentType":5126,"count":7,"max":[0,0.859375,0],"min":[0,0.7524999976158142,0],"type":"VEC3"},{"bufferView":13,"componentType":5126,"count":5,"max":[1],"min":[0],"type":"SCALAR"},{"bufferView":14,"componentType":5126,"count":5,"max":[-0.05991615355014801,0,0,0.9982033967971802],"min":[-0.4275156557559967,0,0,0.9040079712867737],"type":"VEC4"},{"bufferView":15,"componentType":5126,"count":3,"max":[1],"min":[0],"type":"SCALAR"},{"bufferView":16,"componentType":5126,"count":3,"max":[0.3826834261417389,0,0,0.9537169337272644],"min":[-0.30070579051971436,0,0,0.9238795042037964],"type":"VEC4"},{"bufferView":17,"componentType":5126,"count":4,"max":[1],"min":[0],"type":"SCALAR"},{"bufferView":18,"componentType":5126,"count":4,"max":[0.44228869676589966,0,0,0.9883615374565125],"min":[-0.15212339162826538,0,0,0.8968727588653564],"type":"VEC4"},{"bufferView":19,"componentType":5126,"count":5,"max":[1],"min":[0],"type":"SCALAR"},{"bufferView":20,"componentType":5126,"count":5,"max":[-0.05991615355014801,0,0,0.9982033967971802],"min":[-0.4275156557559967,0,0,0.9040079712867737],"type":"VEC4"}],"materials":[{"pbrMetallicRoughness":{"metallicFactor":0,"roughnessFactor":1,"baseColorTexture":{"index":0}},"alphaMode":"MASK","alphaCutoff":0.05,"doubleSided":true}],"textures":[{"sampler":0,"source":0,"name":"texture.png"}],"samplers":[{"magFilter":9728,"minFilter":9728,"wrapS":33071,"wrapT":33071}],"images":[{"mimeType":"image/png","uri":"data:image/png;base64,"}],"meshes":[{"primitives":[{"mode":4,"attributes":{"POSITION":0,"NORMAL":1,"TEXCOORD_0":2,"JOINTS_0":3,"WEIGHTS_0":4},"indices":5,"material":0}]}],"skins":[{"inverseBindMatrices":6,"joints":[10,5,0,2,1,4,3,7,6,9,8],"skeleton":10}],"animations":[{"name":"dummy-animation","samplers":[{"input":7,"output":8,"interpolation":"LINEAR"},{"input":9,"output":10,"interpolation":"LINEAR"},{"input":11,"output":12,"interpolation":"LINEAR"},{"input":13,"output":14,"interpolation":"LINEAR"},{"input":15,"output":16,"interpolation":"LINEAR"},{"input":17,"output":18,"interpolation":"LINEAR"},{"input":19,"output":20,"interpolation":"LINEAR"}],"channels":[{"sampler":0,"target":{"node":2,"path":"rotation"}},{"sampler":1,"target":{"node":7,"path":"rotation"}},{"sampler":2,"target":{"node":10,"path":"translation"}},{"sampler":3,"target":{"node":6,"path":"rotation"}},{"sampler":4,"target":{"node":4,"path":"rotation"}},{"sampler":5,"target":{"node":9,"path":"rotation"}},{"sampler":6,"target":{"node":8,"path":"rotation"}}]}]}