<?xml version="1.0" encoding="utf-8"?>
<svg xmlns="http://www.w3.org/2000/svg" viewBox="0 0 6 6" xmlns:bx="https://boxy-svg.com">
  <defs>
    <bx:export>
      <bx:file format="svg" href="#object-2" normalization="{&quot;resetTransformOrigins&quot;:true}" path="switch.svg"/>
    </bx:export>
  </defs>
  <g id="object-2" transform="matrix(0.300023, 0, 0, 0.300023, -3.00023, 0.022195)">
    <path color-rendering="auto" image-rendering="auto" shape-rendering="auto" color-interpolation="sRGB" d="M 10.8475 3.00054 C 10.4375 2.9805 10.0675 3.52054 10.4575 3.90054 L 11.3475 4.79054 L 11.3475 5.60054 C 11.3375 5.89054 11.5675 6.12054 11.8575 6.13054 C 12.1375 6.13054 12.3775 5.90054 12.3775 5.62054 C 12.3775 5.61054 12.3775 5.61054 12.3775 5.60054 L 12.3775 4.79054 L 13.2675 3.90054 C 13.7675 3.41054 13.0275 2.6705 12.5375 3.17054 L 11.8675 3.84054 L 11.1875 3.17054 C 11.0875 3.06054 10.9675 3.01054 10.8475 3.00054 Z M 14.9875 0.02054 C 14.8575 0.02054 14.7275 0.07054 14.6375 0.17054 L 13.5975 1.20054 C 13.3975 1.40054 13.3875 1.73054 13.5875 1.94054 C 13.7875 2.14054 14.1175 2.14054 14.3175 1.94054 C 14.3275 1.94054 14.3275 1.94054 14.3275 1.94054 L 14.4775 1.78054 L 14.4775 14.5005 L 10.5175 14.5005 C 9.8275 14.4905 9.8275 15.5405 10.5175 15.5305 L 14.4775 15.5305 L 14.4775 19.4905 C 14.4675 20.1905 15.5275 20.1905 15.5175 19.4905 L 15.5175 15.5305 L 28.2275 15.5305 L 28.0775 15.6805 C 27.5775 16.1705 28.3175 16.9105 28.8075 16.4105 L 29.7875 15.4305 C 30.0175 15.2605 30.0675 14.9405 29.8975 14.7105 C 29.8775 14.6905 29.8575 14.6705 29.8375 14.6505 L 28.8075 13.6105 C 28.7075 13.5105 28.5775 13.4605 28.4375 13.4605 C 28.1475 13.4605 27.9175 13.6905 27.9175 13.9705 C 27.9175 14.1105 27.9775 14.2505 28.0775 14.3405 L 28.2275 14.5005 L 24.8175 14.5005 L 24.8175 13.9805 C 24.8275 13.6905 24.5875 13.4505 24.2975 13.4505 C 24.0075 13.4605 23.7875 13.6905 23.7875 13.9805 L 23.7875 14.5005 L 21.7175 14.5005 L 21.7175 13.9805 C 21.7275 13.6905 21.4875 13.4505 21.1975 13.4505 C 20.9075 13.4605 20.6775 13.6905 20.6875 13.9805 L 20.6875 14.5005 L 18.6175 14.5005 L 18.6175 13.9805 C 18.6175 13.6905 18.3875 13.4505 18.0975 13.4505 C 17.8075 13.4605 17.5775 13.6905 17.5875 13.9805 L 17.5875 14.5005 L 15.5175 14.5005 L 15.5175 1.78054 L 15.6675 1.94054 C 15.8675 2.14054 16.1975 2.14054 16.3975 1.94054 C 16.6075 1.74054 16.6075 1.42054 16.4075 1.21054 C 16.4075 1.21054 16.3975 1.21054 16.3975 1.20054 L 15.3675 0.17054 C 15.2675 0.07054 15.1275 0.02054 14.9875 0.02054 Z M 24.3975 16.5905 C 24.1175 16.5905 23.8875 16.8205 23.8875 17.1105 C 23.8875 17.2505 23.9375 17.3805 24.0375 17.4805 L 24.7075 18.1505 L 24.0375 18.8205 C 23.8375 19.0205 23.8375 19.3405 24.0375 19.5505 C 24.2275 19.7505 24.5575 19.7605 24.7675 19.5605 C 24.7675 19.5505 24.7675 19.5505 24.7775 19.5505 L 25.4375 18.8805 L 26.1075 19.5505 C 26.3075 19.7505 26.6375 19.7605 26.8375 19.5605 C 27.0475 19.3605 27.0475 19.0305 26.8475 18.8305 C 26.8475 18.8205 26.8475 18.8205 26.8375 18.8205 L 26.1675 18.1505 L 26.8375 17.4805 C 27.0475 17.2805 27.0475 16.9505 26.8475 16.7505 C 26.7475 16.6405 26.6075 16.5905 26.4675 16.5905 C 26.3275 16.6005 26.2075 16.6505 26.1075 16.7505 L 25.4375 17.4205 L 24.7775 16.7505 C 24.6775 16.6505 24.5375 16.5905 24.3975 16.5905 Z" style="fill: rgb(255, 255, 255); stroke: rgb(0, 0, 0); stroke-width: 0.2px;"/>
  </g>
</svg>