<?xml version="1.0" encoding="utf-8"?>
<svg width="60" height="60" viewBox="0 0 60 60" xmlns="http://www.w3.org/2000/svg">
  <path d="M 60,30 L 59.424,35.853 L 57.716,41.480 L 54.944,46.667 L 51.213,51.213 L 46.667,54.944 L 41.480,57.716 L 35.853,59.424 L 30,60 L 24.147,59.424 L 18.520,57.716 L 13.333,54.944 L 8.787,51.213 L 5.056,46.667 L 2.284,41.480 L 0.576,35.853 L 0,30 L 0.576,24.147 L 2.284,18.520 L 5.056,13.333 L 8.787,8.787 L 13.333,5.056 L 18.520,2.284 L 24.147,0.576 L 30,0 L 35.853,0.576 L 41.480,2.284 L 46.667,5.056 L 51.213,8.787 L 54.944,13.333 L 57.716,18.520 L 59.424,24.147 Z" style="fill: rgb(186, 218, 85); stroke: rgb(100, 100, 100); fill-opacity: 0.1; stroke-opacity: 0.2;">
    <title>decor circle</title>
  </path>
</svg>