<?xml version="1.0" encoding="utf-8"?>
<svg width="60" height="60" viewBox="0 0 60 60" style="filter: none;" xmlns="http://www.w3.org/2000/svg" xmlns:bx="https://boxy-svg.com">
  <defs>
    <bx:grid x="0" y="0" width="300" height="300"/>
  </defs>
  <g transform="matrix(0.428571, 0, 0, 0.428571, 0.000029, 3.21431)">
    <path id="path4595" d="M 70.324974 0.000004 C 70.191254 0.001685 70.058044 0.017223 69.927454 0.046362 C 66.801185 0.07549 63.884165 1.722182 62.309625 4.479397 L 31.731278 58.009987 L 1.152921 111.540581 L 1.154881 111.540581 C -2.191499 117.397502 2.149941 124.999719 8.84151 125.000005 L 69.998224 125.000005 L 131.156839 125.000005 C 137.848418 124.999689 142.191777 117.397492 138.845388 111.540581 L 108.267031 58.009987 L 77.686764 4.479397 C 76.253074 1.968733 73.695264 0.361856 70.858244 0.0792 C 70.716344 0.036883 70.570164 0.010962 70.422494 0.001936 L 70.418574 0.001936 C 70.388044 0.00057 70.357424 -0.000072 70.326894 0.000007 L 70.324974 0.000004 Z" style="color:#000000;opacity:1;solid-color:#000000;fill:#000000;fill-opacity:1;stroke:none;"/>
    <path style="color:#000000;opacity:1;solid-color:#000000;fill:#ffffff;fill-opacity:1;stroke:none;" d="M 70.325534 1.977968 C 67.742355 1.85459 65.298095 3.20464 64.005365 5.468379 L 33.427008 58.998968 L 2.848651 112.529564 C 0.231501 117.110173 3.608531 123.021814 8.84201 123.022042 L 69.998724 123.022042 L 131.157349 123.022042 C 136.390838 123.021794 139.767868 117.110163 137.150708 112.529564 L 106.572351 58.998968 L 75.992074 5.468379 C 74.815784 3.408465 72.677984 2.091001 70.327444 1.977968 L 70.325484 1.977968 L 70.325534 1.977968 Z" id="path4583"/>
    <path style="color:#000000;opacity:1;solid-color:#000000;fill:#000000;fill-opacity:1;stroke:none;" d="M 70.233804 3.954 C 68.378305 3.865378 66.629135 4.831308 65.700555 6.457362 L 35.122208 59.987951 L 4.543851 113.518546 C 2.632991 116.862967 5.020921 121.043909 8.84202 121.044077 L 69.998724 121.044077 L 131.157359 121.044077 C 134.978458 121.043899 137.366368 116.862957 135.455518 113.518546 L 104.877161 59.987951 L 74.296904 6.457362 C 73.452344 4.978377 71.921444 4.035156 70.233804 3.954 Z" id="path4577"/>
    <path style="opacity:1;fill:#ffcc00;fill-opacity:1;stroke:none;" id="path4573" d="M 131.157439 116.027376 L 69.999684 116.027376 L 8.84191 116.027376 L 39.420797 62.496222 L 69.999684 8.965069 L 100.578561 62.496221 L 131.157439 116.027376 Z"/>
    <g id="g858" transform="matrix(0.978508, 0, 0, 0.988982, -6.87567, -7.146937)">
      <title>bang</title>
      <circle r="8.8173475" cy="111.11701" cx="78.564362" id="path846" style="opacity:1;fill:#000000;fill-opacity:1;stroke:none;"/>
      <path id="circle848" d="m 78.564453,42.955078 c -4.869714,-5.59e-4 -8.817839,3.946692 -8.818359,8.816406 3.15625,37.460938 0,0 3.15625,37.460938 8.93e-4,3.126411 2.535698,5.660342 5.662109,5.660156 3.126411,1.86e-4 5.661216,-2.533745 5.662109,-5.660156 3.154297,-37.460938 0,0 3.154297,-37.460938 -5.2e-4,-4.868951 -3.947455,-8.815886 -8.816406,-8.816406 z" style="opacity:1;fill:#000000;fill-opacity:1;stroke:none;"/>
    </g>
  </g>
</svg>