<?xml version="1.0" encoding="utf-8"?>
<svg xmlns="http://www.w3.org/2000/svg" viewBox="0 0 40 15">
  <path d="M 0.21525 14.541 L 0.21525 0.2246 L 1.97306 0.2246 L 1.97306 14.541 L 0.21525 14.541 Z M 11.4647 13.2617 C 10.8137 13.8151 10.187 14.2057 9.58478 14.4336 C 8.98257 14.6615 8.33641 14.7754 7.6463 14.7754 C 6.50698 14.7754 5.63133 14.4971 5.01935 13.9404 C 4.40737 13.3838 4.10138 12.6725 4.10138 11.8066 C 4.10138 11.2988 4.21694 10.835 4.44806 10.415 C 4.67918 9.99511 4.98192 9.65821 5.35627 9.40431 C 5.73062 9.15041 6.15216 8.95831 6.62091 8.82811 C 6.96596 8.73701 7.4868 8.64911 8.18341 8.56441 C 9.60268 8.39521 10.6477 8.19331 11.3181 7.95901 C 11.3247 7.71811 11.3279 7.5651 11.3279 7.49999 C 11.3279 6.78385 11.1619 6.27929 10.8299 5.98632 C 10.3806 5.58919 9.71336 5.39062 8.82794 5.39062 C 8.00112 5.39062 7.39077 5.53548 6.99689 5.82519 C 6.60301 6.1149 6.31167 6.6276 6.12287 7.36328 L 4.40412 7.1289 C 4.56037 6.39323 4.81753 5.79915 5.1756 5.34667 C 5.53367 4.8942 6.05125 4.54589 6.72834 4.30175 C 7.40542 4.05761 8.18992 3.93554 9.08185 3.93554 C 9.96727 3.93554 10.6867 4.03971 11.2401 4.24804 C 11.7934 4.45637 12.2004 4.71842 12.4608 5.03417 C 12.7211 5.34993 12.9034 5.74869 13.0076 6.23046 C 13.0663 6.52994 13.0955 7.07031 13.0955 7.85161 L 13.0955 10.1953 C 13.0955 11.8294 13.1329 12.8629 13.2079 13.2959 C 13.2827 13.7288 13.4308 14.1439 13.6522 14.541 L 11.8163 14.541 C 11.634 14.1764 11.5168 13.75 11.4647 13.2617 Z M 11.3181 9.33591 C 10.6801 9.59631 9.72313 9.81771 8.44709 10 C 7.72443 10.1041 7.21336 10.2213 6.91388 10.3516 C 6.6144 10.4818 6.38328 10.6722 6.22052 10.9228 C 6.05776 11.1735 5.97638 11.4518 5.97638 11.7578 C 5.97638 12.2266 6.15379 12.6172 6.50861 12.9297 C 6.86343 13.2422 7.38264 13.3984 8.06623 13.3984 C 8.74331 13.3984 9.34552 13.2503 9.87287 12.9541 C 10.4002 12.6579 10.7875 12.2526 11.035 11.7383 C 11.2238 11.3411 11.3181 10.7552 11.3181 9.98051 L 11.3181 9.33591 Z M 17.4415 14.541 L 15.8107 14.541 L 15.8107 0.2246 L 17.5685 0.2246 L 17.5685 5.33203 C 18.3106 4.40104 19.258 3.93554 20.4104 3.93554 C 21.0483 3.93554 21.6521 4.06412 22.2218 4.32128 C 22.7915 4.57845 23.2602 4.93978 23.6281 5.40527 C 23.996 5.87076 24.2841 6.43229 24.4923 7.08984 C 24.7006 7.74741 24.8048 8.45051 24.8048 9.19921 C 24.8048 10.9766 24.3653 12.3503 23.4865 13.3203 C 22.6075 14.2903 21.5528 14.7754 20.3224 14.7754 C 19.0984 14.7754 18.1381 14.2643 17.4415 13.2422 L 17.4415 14.541 Z M 17.422 9.27731 C 17.422 10.5208 17.5912 11.4192 17.9298 11.9726 C 18.4833 12.8776 19.232 13.3301 20.176 13.3301 C 20.9442 13.3301 21.6083 12.9964 22.1682 12.3291 C 22.728 11.6618 23.008 10.6673 23.008 9.34571 C 23.008 7.99151 22.7395 6.99218 22.2022 6.34765 C 21.6652 5.70312 21.0158 5.38085 20.254 5.38085 C 19.4858 5.38085 18.8218 5.71451 18.2618 6.38183 C 17.702 7.04915 17.422 8.01431 17.422 9.27731 Z M 34.0429 11.2012 L 35.8593 11.4258 C 35.5727 12.487 35.0421 13.3105 34.2674 13.8965 C 33.4928 14.4824 32.5031 14.7754 31.2986 14.7754 C 29.7817 14.7754 28.5789 14.3083 27.6902 13.374 C 26.8016 12.4398 26.3573 11.1295 26.3573 9.44331 C 26.3573 7.69861 26.8066 6.3444 27.705 5.38085 C 28.6033 4.41731 29.7688 3.93554 31.201 3.93554 C 32.5877 3.93554 33.7206 4.40755 34.5994 5.35156 C 35.4783 6.29557 35.9179 7.62371 35.9179 9.33591 C 35.9179 9.44011 35.9145 9.59631 35.9081 9.80471 L 28.1736 9.80471 C 28.2388 10.944 28.5611 11.8164 29.1405 12.4219 C 29.72 13.0273 30.4426 13.3301 31.3085 13.3301 C 31.953 13.3301 32.5031 13.1608 32.9588 12.8222 C 33.4145 12.4837 33.776 11.9433 34.0429 11.2012 Z M 28.2714 8.35941 L 34.0624 8.35941 C 33.9843 7.48698 33.7629 6.83268 33.3984 6.39648 C 32.8385 5.71939 32.1125 5.38085 31.2205 5.38085 C 30.4133 5.38085 29.7345 5.65103 29.1844 6.1914 C 28.6344 6.73177 28.33 7.45442 28.2714 8.35941 Z M 38.0269 14.541 L 38.0269 0.2246 L 39.7848 0.2246 L 39.7848 14.541 L 38.0269 14.541 Z" style="fill: rgb(51, 51, 51); stroke: rgb(255, 255, 255); stroke-width: 0.4px; text-wrap-mode: nowrap;"/>
</svg>