<svg xmlns="http://www.w3.org/2000/svg" viewBox="28 28 144 144" width="200" height="200">
  <g style="fill: none; stroke: #ffffff; stroke-width: 10; stroke-linecap: round; stroke-linejoin: round">
    <!-- Outer petals (behind) -->
    <path d="M 100,132 C 80,118 54,100 52,80 C 68,76 90,108 100,132 Z"/>
    <path d="M 100,132 C 120,118 146,100 148,80 C 132,76 110,108 100,132 Z"/>
    <!-- Inner side petals -->
    <path d="M 100,132 C 84,112 68,86 72,65 C 86,74 96,108 100,132 Z"/>
    <path d="M 100,132 C 116,112 132,86 128,65 C 114,74 104,108 100,132 Z"/>
    <!-- Centre petal (front) -->
    <path d="M 100,132 C 90,102 90,70 100,52 C 110,70 110,102 100,132 Z"/>
    <!-- Seedpod -->
    <circle cx="100" cy="132" r="7"/>
    <!-- Stem -->
    <line x1="100" y1="139" x2="100" y2="158"/>
  </g>
</svg>
