<svg xmlns="http://www.w3.org/2000/svg" viewBox="0 0 64 64">
  <defs>
    <linearGradient id="card" x1="0" y1="0" x2="1" y2="1">
      <stop offset="0" stop-color="#ffffff"/>
      <stop offset="1" stop-color="#c3ccd8"/>
    </linearGradient>
    <g id="k">
      <rect x="-11" y="2" width="22" height="34" rx="3" fill="url(#card)" stroke="#1a2230" stroke-width="1.4"/>
      <circle cx="0" cy="7" r="2.2" fill="#0d1622" stroke="#1a2230" stroke-width="1"/>
      <rect x="-6.500" y="18" width="7" height="6" rx="1" fill="#e0bb5e" stroke="#1a2230" stroke-width="0.8"/>
      <path d="M-6.500 28H6.500M-6.500 31.500H3" stroke="#1a2230" stroke-width="1.4" stroke-linecap="round"/>
    </g>
  </defs>
  <g transform="translate(32 18)">
    <g transform="rotate(34)">
      <use href="#k"/>
      <path d="M-11 11H11V5a3 3 0 0 0-3-3H-8a3 3 0 0 0-3 3Z" fill="#d1493f" stroke="#1a2230" stroke-width="1.4"/>
      <circle cx="0" cy="7" r="2.2" fill="#0d1622" stroke="#1a2230" stroke-width="1"/>
    </g>
    <g transform="rotate(-30)">
      <use href="#k"/>
      <path d="M-11 11H11V5a3 3 0 0 0-3-3H-8a3 3 0 0 0-3 3Z" fill="#3fae6a" stroke="#1a2230" stroke-width="1.4"/>
      <circle cx="0" cy="7" r="2.2" fill="#0d1622" stroke="#1a2230" stroke-width="1"/>
    </g>
    <g transform="rotate(2)">
      <use href="#k"/>
      <path d="M-11 11H11V5a3 3 0 0 0-3-3H-8a3 3 0 0 0-3 3Z" fill="#2f7fd1" stroke="#1a2230" stroke-width="1.4"/>
      <circle cx="0" cy="7" r="2.2" fill="#0d1622" stroke="#1a2230" stroke-width="1"/>
    </g>
  </g>
  <circle cx="32" cy="14" r="9.500" fill="none" stroke="#1a2230" stroke-width="3.600"/>
  <circle cx="32" cy="14" r="9.500" fill="none" stroke="#c9d2dc" stroke-width="2"/>
  <path d="M24.500 9a9.500 9.500 0 0 1 9-4.400" fill="none" stroke="#fff" stroke-width="1" stroke-linecap="round"/>
</svg>
